<svg width="342" height="512" viewBox="0 0 342 512" fill="none" xmlns="http://www.w3.org/2000/svg">
<path d="M158.992 299.051C68.0745 307.269 -1.19146 384.092 0.0155351 475.371V480C0.0155351 497.673 14.3425 512 32.0155 512C49.6885 512 64.0155 497.673 64.0155 480V474.091C63.0535 418.046 104.414 370.253 160.016 363.158C218.709 357.338 271.008 400.2 276.828 458.893C277.172 462.363 277.346 465.847 277.349 469.334V480C277.349 497.673 291.676 512 309.349 512C327.022 512 341.349 497.673 341.349 480V469.333C341.245 374.97 264.664 298.559 170.302 298.663C166.529 298.668 162.757 298.797 158.992 299.051Z" fill="white"/>
<path d="M170.683 256C241.375 256 298.683 198.692 298.683 128C298.683 57.308 241.375 0 170.683 0C99.9905 0 42.6825 57.308 42.6825 128C42.7525 198.663 100.02 255.929 170.683 256ZM170.683 64C206.029 64 234.683 92.654 234.683 128C234.683 163.346 206.029 192 170.683 192C135.337 192 106.683 163.346 106.683 128C106.683 92.654 135.337 64 170.683 64Z" fill="white"/>
</svg>
